# File created by Blade
# Date/Time:  Thu Jan 22 18:25:10 2015
# Frame Rate: 120.000 fps
#------------------------------------------------------
:FULLY-SPECIFIED
:DEGREES
1333
root -2.852979 33.321060 0.360806 5.738249 -3.162049 2.626638
RightUpLeg 1.518551 -3.865049 -2.398351
RightLeg 0.431731 -0.000000 -0.000000
RightFoot -10.797285 -3.431005 3.692327
RightToeBase 5.389182 -0.000000 -0.000000
LeftUpLeg 2.004140 4.316435 0.568863
LeftLeg 1.293170 -0.000000 -0.000000
LeftFoot -9.950208 3.194559 -9.776699
LeftToeBase 8.235765 -0.000000 -0.000000
Spine -9.458599 -4.723589 -4.277300
RightShoulder -18.397167 6.359815 -49.621787
RightArm 30.405717 69.655859 35.204819
RightForeArm 78.057004 -0.000000 122.345736
RightHand 10.749022 -0.000000 -34.096233
RightHandThumb1 -24.326973 -0.000000 -32.862282
LeftShoulder -28.991851 -17.530036 65.245479
LeftArm 123.597179 -54.962690 -80.841609
LeftForeArm -19.079376 -0.000000 129.745433
LeftHand -7.551136 0.000000 5.146424
LeftHandThumb1 -26.253704 0.000000 33.147579
Head 19.704348 18.366551 2.367808
1334
root -2.853966 33.320423 0.368209 5.739754 -3.186436 2.625223
RightUpLeg 1.540062 -3.840572 -2.399750
RightLeg 0.404025 -0.000000 -0.000000
RightFoot -10.789277 -3.425013 3.702711
RightToeBase 5.382951 -0.000000 -0.000000
LeftUpLeg 2.026152 4.335523 0.569890
LeftLeg 1.279654 -0.000000 -0.000000
LeftFoot -9.948772 3.195672 -9.782779
LeftToeBase 8.223427 -0.000000 -0.000000
Spine -9.493422 -4.722053 -4.295506
RightShoulder -18.438247 6.471917 -49.661698
RightArm 30.579530 69.483543 35.425327
RightForeArm 77.963802 -0.000000 122.362928
RightHand 10.684003 -0.000000 -34.082797
RightHandThumb1 -24.326973 -0.000000 -32.862282
LeftShoulder -28.977974 -17.493066 65.226904
LeftArm 123.629111 -54.941249 -80.851891
LeftForeArm -18.190314 0.000000 130.016658
LeftHand -7.309981 -0.000000 5.377966
LeftHandThumb1 -26.253704 0.000000 33.147579
Head 19.757341 18.366881 2.411799
1335
root -2.856726 33.319282 0.375232 5.740884 -3.201710 2.625508
RightUpLeg 1.560007 -3.810733 -2.396010
RightLeg 0.379838 -0.000000 -0.000000
RightFoot -10.794870 -3.447282 3.690014
RightToeBase 5.433996 -0.000000 -0.000000
LeftUpLeg 2.043008 4.343518 0.571466
LeftLeg 1.274016 -0.000000 -0.000000
LeftFoot -9.978877 3.229055 -9.723921
LeftToeBase 8.333805 -0.000000 -0.000000
Spine -9.522285 -4.731491 -4.328505
RightShoulder -18.453014 6.506682 -49.678540
RightArm 30.730337 69.404893 35.651305
RightForeArm 77.867922 -0.000000 122.418812
RightHand 10.617353 0.000000 -34.194174
RightHandThumb1 -24.326973 -0.000000 -32.862282
LeftShoulder -28.964648 -17.461489 65.195638
LeftArm 123.726448 -54.916938 -80.870145
LeftForeArm -17.298333 -0.000000 130.295767
LeftHand -7.328761 -0.000000 5.306788
LeftHandThumb1 -26.253704 0.000000 33.147579
Head 19.791848 18.339711 2.472618
1336
root -2.858112 33.317639 0.384444 5.724746 -3.215184 2.627520
RightUpLeg 1.603826 -3.797888 -2.400652
RightLeg 0.353385 -0.000000 -0.000000
RightFoot -10.796813 -3.436406 3.708460
RightToeBase 5.408917 -0.000000 -0.000000
LeftUpLeg 2.083254 4.371264 0.572067
LeftLeg 1.265141 -0.000000 -0.000000
LeftFoot -9.994660 3.213757 -9.712611
LeftToeBase 8.350263 -0.000000 -0.000000
Spine -9.536748 -4.749756 -4.364345
RightShoulder -18.420426 6.594272 -49.741555
RightArm 30.579933 69.317483 35.663444
RightForeArm 77.837260 -0.000000 122.503572
RightHand 10.670947 0.000000 -34.164183
RightHandThumb1 -24.326973 -0.000000 -32.862282
LeftShoulder -28.953507 -17.403161 65.181456
LeftArm 123.835065 -54.866485 -80.962831
LeftForeArm -16.427870 0.000000 130.562440
LeftHand -7.029157 -0.000000 5.403539
LeftHandThumb1 -26.253704 0.000000 33.147579
Head 19.840534 18.324278 2.554378
1337
root -2.860113 33.316465 0.393381 5.705699 -3.209417 2.626889
RightUpLeg 1.653756 -3.784662 -2.397398
RightLeg 0.325242 -0.000000 -0.000000
RightFoot -10.788323 -3.460604 3.678454
RightToeBase 5.360961 -0.000000 -0.000000
LeftUpLeg 2.123396 4.342236 0.576949
LeftLeg 1.251114 -0.000000 -0.000000
LeftFoot -9.996864 3.243622 -9.713599
LeftToeBase 8.307832 -0.000000 -0.000000
Spine -9.537162 -4.786794 -4.390452
RightShoulder -18.428625 6.585331 -49.734698
RightArm 30.763991 69.293264 35.912848
RightForeArm 77.787033 -0.000000 122.565210
RightHand 10.657291 -0.000000 -34.210244
RightHandThumb1 -24.326973 -0.000000 -32.862282
LeftShoulder -28.948209 -17.360806 65.164370
LeftArm 123.894842 -54.873894 -80.960374
LeftForeArm -15.457344 -0.000000 130.853774
LeftHand -7.083114 0.000000 5.526928
LeftHandThumb1 -26.253704 0.000000 33.147579
Head 19.850771 18.306340 2.621883
1338
root -2.862873 33.315627 0.400446 5.692621 -3.207410 2.620525
RightUpLeg 1.684397 -3.748486 -2.387405
RightLeg 0.317240 -0.000000 -0.000000
RightFoot -10.798726 -3.498896 3.684451
RightToeBase 5.378652 -0.000000 -0.000000
LeftUpLeg 2.148985 4.349850 0.589604
LeftLeg 1.252697 -0.000000 -0.000000
LeftFoot -10.015041 3.235470 -9.720289
LeftToeBase 8.271828 -0.000000 -0.000000
Spine -9.541973 -4.819515 -4.409777
RightShoulder -18.444630 6.651449 -49.770691
RightArm 30.777941 69.186195 36.018389
RightForeArm 77.721847 -0.000000 122.639234
RightHand 10.681866 -0.000000 -34.324449
RightHandThumb1 -24.326973 -0.000000 -32.862282
LeftShoulder -28.926284 -17.314022 65.132831
LeftArm 124.015753 -54.883803 -81.016999
LeftForeArm -14.789849 -0.000000 131.125891
LeftHand -6.976238 -0.000000 5.709706
LeftHandThumb1 -26.253704 0.000000 33.147579
Head 19.869383 18.257681 2.685821
1339
root -2.864606 33.314500 0.408713 5.668394 -3.197855 2.616976
RightUpLeg 1.730021 -3.736623 -2.383254
RightLeg 0.307170 -0.000000 -0.000000
RightFoot -10.814673 -3.509436 3.683405
RightToeBase 5.411558 -0.000000 -0.000000
LeftUpLeg 2.187667 4.343508 0.597080
LeftLeg 1.251594 -0.000000 -0.000000
LeftFoot -10.024961 3.240166 -9.716656
LeftToeBase 8.271610 -0.000000 -0.000000
Spine -9.536442 -4.876680 -4.424075
RightShoulder -18.447765 6.712346 -49.803446
RightArm 30.808943 69.102705 36.142444
RightForeArm 77.659660 -0.000000 122.698129
RightHand 10.656051 0.000000 -34.396963
RightHandThumb1 -24.326973 -0.000000 -32.862282
LeftShoulder -28.928892 -17.237445 65.099497
LeftArm 124.096796 -54.872756 -81.025242
LeftForeArm -14.148835 -0.000000 131.363904
LeftHand -6.699276 0.000000 5.687581
LeftHandThumb1 -26.253704 0.000000 33.147579
Head 19.890115 18.247421 2.762476
1340
root -2.866016 33.313729 0.416065 5.658375 -3.186521 2.612652
RightUpLeg 1.752992 -3.724355 -2.377647
RightLeg 0.313334 -0.000000 -0.000000
RightFoot -10.817157 -3.519274 3.705467
RightToeBase 5.388072 -0.000000 -0.000000
LeftUpLeg 2.206421 4.353220 0.606209
LeftLeg 1.257709 -0.000000 -0.000000
LeftFoot -10.040929 3.217499 -9.709426
LeftToeBase 8.294103 -0.000000 -0.000000
Spine -9.538611 -4.902693 -4.438367
RightShoulder -18.436373 6.728049 -49.832484
RightArm 30.699706 69.096940 36.132986
RightForeArm 77.675237 -0.000000 122.760139
RightHand 10.695444 0.000000 -34.367304
RightHandThumb1 -24.326973 -0.000000 -32.862282
LeftShoulder -28.916042 -17.246857 65.080894
LeftArm 124.161376 -54.860445 -81.041914
LeftForeArm -13.739432 -0.000000 131.576264
LeftHand -6.754448 -0.000000 5.698595
LeftHandThumb1 -26.253704 0.000000 33.147579
Head 19.893864 18.183329 2.811924
1341
root -2.867687 33.312869 0.423564 5.649332 -3.167874 2.604502
RightUpLeg 1.780390 -3.730578 -2.367079
RightLeg 0.309084 -0.000000 -0.000000
RightFoot -10.819154 -3.534212 3.690318
RightToeBase 5.391440 -0.000000 -0.000000
LeftUpLeg 2.227416 4.323957 0.617730
LeftLeg 1.256328 -0.000000 -0.000000
LeftFoot -10.051148 3.241515 -9.692808
LeftToeBase 8.273792 -0.000000 -0.000000
Spine -9.541515 -4.953441 -4.445205
RightShoulder -18.472153 6.781083 -49.811425
RightArm 30.855279 69.042204 36.273921
RightForeArm 77.693668 -0.000000 122.808770
RightHand 10.544806 -0.000000 -34.596620
RightHandThumb1 -24.326973 -0.000000 -32.862282
LeftShoulder -28.913730 -17.222001 65.078872
LeftArm 124.216996 -54.865768 -81.069107
LeftForeArm -13.584422 -0.000000 131.758936
LeftHand -6.477604 0.000000 5.296117
LeftHandThumb1 -26.253704 0.000000 33.147579
Head 19.902924 18.141009 2.860062
1342
root -2.867547 33.311758 0.433632 5.620544 -3.151296 2.606462
RightUpLeg 1.836288 -3.732812 -2.372550
RightLeg 0.295781 -0.000000 -0.000000
RightFoot -10.831049 -3.546061 3.697097
RightToeBase 5.344988 -0.000000 -0.000000
LeftUpLeg 2.274255 4.296331 0.617269
LeftLeg 1.251002 -0.000000 -0.000000
LeftFoot -10.065739 3.256442 -9.688361
LeftToeBase 8.303064 -0.000000 -0.000000
Spine -9.527584 -4.985321 -4.460834
RightShoulder -18.492024 6.863011 -49.850135
RightArm 30.691254 68.942667 36.175343
RightForeArm 77.566489 -0.000000 122.826612
RightHand 10.564953 -0.000000 -34.539922
RightHandThumb1 -24.326973 -0.000000 -32.862282
LeftShoulder -28.891279 -17.209089 65.063598
LeftArm 124.301731 -54.865146 -81.121134
LeftForeArm -13.489597 -0.000000 131.889016
LeftHand -6.322060 -0.000000 5.267879
LeftHandThumb1 -26.253704 0.000000 33.147579
Head 19.910455 18.088567 2.909811
1343
root -2.868941 33.310987 0.440782 5.617418 -3.138340 2.599696
RightUpLeg 1.852386 -3.720399 -2.364796
RightLeg 0.302081 -0.000000 -0.000000
RightFoot -10.839173 -3.559181 3.703160
RightToeBase 5.330694 -0.000000 -0.000000
LeftUpLeg 2.285509 4.300644 0.628506
LeftLeg 1.256565 -0.000000 -0.000000
LeftFoot -10.075432 3.236935 -9.679762
LeftToeBase 8.285761 -0.000000 -0.000000
Spine -9.535543 -5.020822 -4.469092
RightShoulder -18.507349 6.882918 -49.852267
RightArm 30.642683 68.920800 36.166331
RightForeArm 77.520521 0.000000 122.854233
RightHand 10.541563 0.000000 -34.560050
RightHandThumb1 -24.326973 -0.000000 -32.862282
LeftShoulder -28.879598 -17.180705 65.040997
LeftArm 124.434299 -54.846144 -81.200876
LeftForeArm -13.324418 -0.000000 131.971197
LeftHand -6.170842 -0.000000 4.848194
LeftHandThumb1 -26.253704 0.000000 33.147579
Head 19.921615 18.039482 2.957362
